<svg xmlns="http://www.w3.org/2000/svg" width="80" height="80" viewBox="0 0 80 80" fill="none"><circle cx="40" cy="40" r="40" fill="#FEB8A6"></circle><path d="M65.7455 57.1531C61.0534 57.5039 55.7035 57.8547 55.7035 57.8547C55.7035 57.8547 50.836 56.3637 49.9151 56.5392C48.9942 56.7146 47.4156 57.5916 46.7578 57.1092C46.1 56.6707 45.9246 56.4076 45.3107 56.3199C44.6968 56.2322 42.3727 56.7584 40.4432 56.5392C38.5137 56.3637 31.0151 56.7146 24.1743 55.1798C17.3335 53.645 15.2725 55.0921 15.2725 55.0921L18.2105 57.9863C18.2105 57.9863 33.997 59.3018 37.0666 59.3895C40.1362 59.4772 43.3812 60.8804 45.0037 59.828C46.6701 58.7756 47.9418 59.6526 49.345 59.6088C50.7483 59.5649 57.633 59.9157 57.633 59.9157C57.633 59.9157 61.4042 59.828 65.7455 59.5649V57.1531Z" fill="#5B2813"></path><path d="M36.145 57.4164C36.145 57.4164 37.329 59.302 37.1098 61.0122C36.9343 62.7224 36.8905 65.3096 37.3729 66.0551C37.8552 66.8006 37.1098 69.037 37.1098 69.037L39.3462 69.2563C39.3462 69.2563 40.5302 59.7843 39.3462 58.1618C38.206 56.5393 36.145 57.4164 36.145 57.4164Z" fill="#5B2813"></path><path d="M52.4578 22.9932C52.4578 22.9932 56.3167 32.9913 52.8524 39.876C49.3882 46.7606 43.6875 46.4537 43.6875 46.4537C43.6875 46.4537 49.6074 24.7472 52.4578 22.9932Z" fill="#4D561E"></path><path d="M35.5748 51.8033C35.5748 51.8033 33.6454 55.8815 30.2688 57.3724C26.8922 58.8634 23.998 63.2047 23.998 63.2047C23.998 63.2047 28.4709 49.6107 35.5748 51.8033Z" fill="#C11F0A"></path><path d="M38.5117 54.961L43.3354 57.2852C41.8006 61.1879 43.9493 62.5912 43.9493 62.5912C43.2038 61.3633 43.8177 60.574 43.73 59.9162C43.6423 59.2585 43.9493 58.3814 44.6071 57.9868C45.2648 57.5921 46.405 56.5835 46.405 56.5835L40.3973 54.1279C40.3535 53.9086 40.3096 53.6893 40.2219 53.5139C40.0904 53.1631 39.8711 52.9 39.7396 52.7246C38.9502 53.3385 38.1609 53.9086 37.3716 54.4348L38.5117 54.961Z" fill="#FF9F29"></path><path d="M50.879 56.2766C50.879 56.2766 51.1421 56.4081 51.5367 56.5835C50.879 56.6274 50.2212 56.6712 49.5196 56.7151C49.4319 56.6712 49.388 56.6274 49.388 56.6274C49.388 56.6274 49.3003 56.6712 49.1687 56.7151C48.5987 56.9343 47.2393 57.636 46.6254 58.4253C45.8799 59.4339 45.2221 59.1708 44.4766 60.9248C44.4328 60.8371 44.1258 59.6093 45.4852 58.0306C45.836 57.636 46.1868 57.2413 46.4938 56.9343C47.4147 55.9696 48.0725 55.3995 48.0725 55.3995C48.0725 55.3995 46.4938 52.6807 45.7483 52.023C45.3098 51.6283 45.2221 50.9705 45.266 50.4005C45.3098 50.0935 45.3537 49.7865 45.4414 49.5234C45.9676 49.6111 46.45 49.6988 46.9762 49.7427C46.8885 49.8742 46.7569 50.0497 46.6692 50.2689C46.4938 50.7513 46.4938 51.4091 47.2393 52.023C48.2479 52.9 50.879 56.2766 50.879 56.2766Z" fill="#FF9F29"></path><path d="M60.1756 4.92633C60.1317 5.36485 60.0002 5.62796 60.0002 5.62796C60.0002 5.62796 57.1498 8.566 57.1498 10.7147C57.1498 11.3725 57.3252 11.8987 57.5006 12.5126C57.5445 12.688 57.6322 12.9073 57.676 13.1266C58.0707 14.3982 58.3338 16.1962 57.3691 19.9674C55.7466 26.282 56.2728 30.4917 54.2118 33.1667C52.1508 35.8416 48.4672 39.6567 48.5549 44.0418C48.5549 44.8311 48.5549 45.5328 48.5549 46.1467C48.4234 48.8216 47.7656 49.6987 45.9239 50.6195C44.696 51.2335 43.1174 51.4966 40.3986 51.4966C40.267 52.2859 39.7846 53.6453 38.206 54.4785C36.4081 55.4432 34.4786 53.2068 33.7331 52.242C32.593 52.6367 31.8914 53.0314 31.8914 53.0314C31.8914 53.0314 25.3575 56.978 23.1211 66.0552C20.9285 75.0009 16.368 79.8684 16.2364 80C16.3241 79.8684 20.2708 72.326 20.2269 67.2392C20.1831 63.9942 21.0601 58.4251 21.7179 54.7854C22.1125 52.6805 22.4195 51.1896 22.4195 51.1019C22.0248 51.3212 21.5863 51.6281 21.0601 52.0666C18.2974 54.2592 14 58.8198 14 58.8198C14.307 55.6186 18.4728 51.8035 20.5339 46.8922C22.5949 41.9369 27.9886 31.588 30.7074 26.5451C31.6283 24.791 32.9438 22.9931 34.2594 21.4145C36.8027 18.3449 39.3461 15.9769 39.3461 15.9769C40.0916 11.504 41.5387 8.69756 43.9505 6.24188C40.7494 8.34674 38.2498 8.03979 38.1183 8.03979C40.4424 7.73282 42.0649 6.11032 42.1526 6.06647C37.7675 7.90823 34.4348 6.28573 34.3471 6.19802C38.1183 6.76809 43.512 4.44397 43.6436 4.40012C37.7675 5.54025 35.7942 1.63747 35.7942 1.59362C35.8819 1.63747 40.267 3.17227 45.3538 1.37437C50.3967 -0.423544 53.5979 0.0588221 53.6856 0.0588221C56.3605 0.278079 57.9391 1.46207 58.9477 2.20754C60.2194 2.99687 60.2633 4.18086 60.1756 4.92633Z" fill="#FF5225"></path><path d="M46.6251 29.0444C46.6251 29.0444 45.9673 42.2876 39.3896 46.5412C34.3467 49.83 25.6202 53.2504 21.7613 54.6975C22.156 52.5927 22.4629 51.1017 22.4629 51.014C22.0682 51.2333 21.6297 51.5402 21.1035 51.9787C23.91 45.1818 31.6717 30.4038 46.6251 29.0444Z" fill="#C11F0A"></path><path d="M59.9998 5.62818C59.9998 5.62818 57.1495 8.56622 57.1495 10.7149C57.1495 11.3727 57.3249 11.8989 57.5003 12.5129C57.5442 12.6883 57.6319 12.9075 57.6757 13.1268C57.0618 13.4776 56.404 13.7845 55.7462 14.0477C52.1066 15.5386 46.7567 14.7054 45.4412 11.7674C44.1256 8.87318 46.4059 3.74256 50.8349 2.73398C54.2553 1.98851 58.3773 3.91797 60.1314 4.83885C60.0875 5.36507 59.9998 5.62818 59.9998 5.62818Z" fill="#FFD6B4"></path><path d="M48.5553 46.1467C48.5991 45.5328 48.5991 44.8751 48.5553 44.0419C48.4676 39.6567 52.1511 35.8417 54.2121 33.1667C56.2731 30.4918 55.7469 26.2382 57.3694 19.9674C58.5095 15.5823 57.9395 13.8721 57.4571 12.5127C57.2379 12.6442 56.9747 12.8197 56.6678 13.1705C56.6678 13.1705 57.6325 15.5823 56.7555 17.9064C56.4924 18.5203 56.2731 19.5728 56.0539 20.7568C55.5715 16.8978 54.1683 14.3106 54.1683 14.3106C55.2645 19.5289 55.4838 22.9055 55.4399 24.8788C55.133 27.1591 54.826 29.3078 54.5629 30.1848C54.3875 30.6672 53.949 31.325 53.3789 32.1143C54.2121 25.7558 51.4933 20.8006 51.4933 20.8006C53.4666 30.2725 51.8441 34.0876 51.8003 34.1753C50.3093 36.1925 48.6868 38.5166 48.4237 40.5776C48.2045 42.5948 48.336 44.6558 48.5553 46.1467Z" fill="#C11F0A"></path><path d="M59.999 5.62818C59.999 5.62818 58.8589 4.83886 56.8856 5.32122C53.6406 6.0667 54.4299 4.57575 52.1496 5.10197C50.4394 5.49663 50.1325 7.46994 47.4575 7.7769C47.4575 7.7769 48.4661 8.21542 49.9132 7.90846C49.9132 7.90846 50.8341 10.3203 53.2459 9.75022C55.3946 9.224 55.877 7.16298 55.877 7.16298C55.877 7.16298 57.938 5.40893 59.999 5.62818Z" fill="#FFBB8C"></path><path d="M51.9308 7.42606C52.1062 8.30309 52.5447 8.96086 52.9833 8.87316C53.4218 8.78546 53.641 8.03998 53.4656 7.16295C53.2902 6.28593 52.8517 5.62815 52.4132 5.71586C52.0185 5.80356 51.7993 6.54903 51.9308 7.42606Z" fill="#381314"></path><path d="M52.4581 7.07497C52.6761 7.07497 52.8528 6.89827 52.8528 6.68031C52.8528 6.46234 52.6761 6.28564 52.4581 6.28564C52.2402 6.28564 52.0635 6.46234 52.0635 6.68031C52.0635 6.89827 52.2402 7.07497 52.4581 7.07497Z" fill="#6A3E43"></path><path d="M52.9848 7.99594C53.1301 7.99594 53.2479 7.87815 53.2479 7.73284C53.2479 7.58752 53.1301 7.46973 52.9848 7.46973C52.8395 7.46973 52.7217 7.58752 52.7217 7.73284C52.7217 7.87815 52.8395 7.99594 52.9848 7.99594Z" fill="#6A3E43"></path><path d="M46.5378 30.1845C46.3624 31.3246 46.0554 32.7279 45.4415 34.2188C44.8714 35.6221 44.0821 37.113 42.8981 38.604C41.6264 40.2265 39.9601 41.849 37.7675 43.3399C27.5062 50.3562 22.4195 51.0139 22.4195 51.0139C20.0953 52.2856 14 58.7318 14 58.7318C14.307 55.5306 17.7712 51.277 19.7884 46.3218C20.1392 45.5325 20.49 44.6116 20.9285 43.603C21.3232 42.726 21.7179 41.8051 22.1564 40.8404C22.4633 40.1388 22.8141 39.3933 23.1211 38.6478C23.4719 37.8147 23.8666 36.9815 24.2612 36.1483C25.7522 32.9471 27.2431 29.746 28.5148 27.4219C29.5234 25.7117 32.1545 22.5982 34.3471 21.2827C37.8113 20.7126 41.3633 21.2388 44.3452 24.0014C46.0554 25.5801 46.8886 27.9042 46.5378 30.1845Z" fill="#FFCD6F"></path><path d="M42.9416 38.6041C41.6699 40.2266 40.0035 41.8491 37.8109 43.34C27.5497 50.3563 22.4629 51.014 22.4629 51.014C20.1388 52.2857 14.0435 58.7319 14.0435 58.7319C14.3504 55.5307 17.8147 51.2771 19.8318 46.3219C20.1827 45.5326 20.5335 44.6117 20.972 43.6031C21.3666 42.7261 21.7613 41.8052 22.1998 40.8405C22.5506 41.1036 23.0769 41.1913 23.7785 41.1475C28.339 40.7528 33.6451 35.9291 37.8986 36.8939C39.8281 37.3762 41.8014 37.7271 42.9416 38.6041Z" fill="#717E43"></path><path d="M14.043 58.7317C14.043 58.7317 20.1383 52.2855 22.4624 51.0138C22.4624 51.0138 27.5054 50.3122 37.8104 43.3398C42.064 40.4457 44.3005 37.1129 45.4845 34.2188C45.3968 34.3503 38.4682 43.1644 29.961 45.8832L31.2327 42.9452C31.145 43.0329 28.1631 46.3656 24.2604 46.9795C20.3576 47.5496 21.0153 43.7784 21.0153 43.6468C20.5768 44.6554 20.226 45.5324 19.8752 46.3656C17.8142 51.277 14.3499 55.5305 14.043 58.7317Z" fill="#4D561E"></path><path d="M45.4408 34.2188C45.397 34.3065 45.3531 34.3942 45.3531 34.4819C45.3531 34.5257 45.3093 34.5696 45.3093 34.6134C45.3093 34.6573 45.2654 34.7011 45.2654 34.745C45.2216 34.8327 45.1777 34.9204 45.1339 35.0081V35.0519C45.09 35.1396 45.0462 35.2273 45.0023 35.2712C44.9585 35.3589 44.9146 35.4466 44.8708 35.5343C44.8269 35.622 44.7831 35.7097 44.7392 35.7974C44.6953 35.8851 44.6515 35.9728 44.6076 36.0605C44.5638 36.1482 44.5199 36.1921 44.4761 36.2798C44.4322 36.3675 44.3884 36.4552 44.3007 36.5867C44.2568 36.6306 44.2568 36.6744 44.213 36.7183C44.1691 36.7621 44.1691 36.806 44.1253 36.8498C44.1253 36.8498 44.1253 36.8937 44.0814 36.8937C44.0376 36.9814 43.9937 37.0691 43.906 37.1568C43.7306 37.4199 43.5991 37.6392 43.4237 37.9023C43.3798 37.9461 43.336 37.99 43.336 38.0338C43.2044 38.2092 43.0728 38.3846 42.9413 38.56C42.6782 38.3408 42.3274 38.1654 41.9766 37.99C44.1253 35.9728 45.397 34.3065 45.4408 34.2188Z" fill="#FF9F29"></path><path d="M35.9249 25.5801C35.9249 25.5801 31.0136 33.2541 28.4263 32.4648C25.7953 31.6754 28.6018 27.4657 28.6018 27.4657C28.6018 27.4657 27.3301 29.9214 29.2157 30.623C30.9259 31.2369 35.9249 25.5801 35.9249 25.5801Z" fill="#FF9F29"></path><path d="M23.165 38.6915C25.7961 39.4809 29.5673 31.4561 29.5673 31.4561C29.5673 31.4561 26.3223 35.4027 24.2613 36.192C23.9105 37.0252 23.5597 37.8584 23.165 38.6915Z" fill="#FF9F29"></path><path d="M43.5997 27.334C43.5997 27.334 40.7055 34.9203 36.715 35.0957C33.3384 35.2711 36.4957 29.3073 36.4957 29.3073C36.4957 29.3073 35.2679 34.3941 37.899 33.1224C40.3985 31.9822 43.5997 27.334 43.5997 27.334Z" fill="#FF9F29"></path><path d="M36.1456 30.4912C36.1456 30.4912 33.2514 38.0775 29.2609 38.2529C25.8843 38.4283 29.0416 32.4645 29.0416 32.4645C29.0416 32.4645 27.8138 37.5513 30.4449 36.2796C32.9444 35.1395 36.1456 30.4912 36.1456 30.4912Z" fill="#FF9F29"></path><path d="M56.0982 12.1182C56.4051 12.776 56.7121 13.1706 56.7121 13.1706C58.0276 12.9514 58.3784 11.8551 58.3784 11.8551C59.7817 11.7674 60.7464 10.8904 60.7464 10.8904C62.1497 11.5481 61.9304 13.96 61.9304 14.0915C62.0181 14.0038 64.7369 11.1096 62.8513 8.08386C60.9657 4.97041 57.8961 5.45277 57.8961 5.45277C54.1687 7.03143 55.2211 10.408 56.0982 12.1182Z" fill="#FF9F29"></path><path d="M56.0972 12.1183C56.4041 12.776 56.7111 13.1707 56.7111 13.1707C58.0266 12.9515 58.3774 11.8552 58.3774 11.8552C59.7807 11.7675 60.7454 10.8904 60.7454 10.8904C62.1487 11.5482 61.9294 13.96 61.9294 14.0916C61.9733 14.0039 62.4118 12.1183 61.6663 10.6712C60.9208 9.18023 59.8245 9.61875 59.8245 9.61875C59.8245 9.61875 58.5967 10.8904 57.632 10.7589C57.6758 10.7589 56.9742 11.5044 56.0972 12.1183Z" fill="#E7832D"></path></svg>